<svg width="18" height="11" viewBox="0 0 18 11" fill="none" xmlns="http://www.w3.org/2000/svg">
<path d="M8.99902 0.417969C9.10546 0.417969 9.21103 0.434 9.3125 0.464844L9.41211 0.5C9.51058 0.540887 9.60258 0.596509 9.68457 0.664062L9.7627 0.735352L17.2627 8.23535C17.338 8.31044 17.4021 8.39586 17.4521 8.48926L17.4971 8.58496C17.5515 8.71601 17.5801 8.85713 17.5801 8.99902C17.5801 9.10544 17.5641 9.21105 17.5332 9.3125L17.4971 9.41211C17.4563 9.51035 17.4013 9.60175 17.334 9.68359L17.2627 9.7627C17.1876 9.83802 17.1022 9.90207 17.0088 9.95215L16.9121 9.99707C16.7811 10.0514 16.6408 10.0801 16.499 10.0801C16.3572 10.0801 16.2169 10.0514 16.0859 9.99707C15.9875 9.95621 15.8954 9.90148 15.8135 9.83398L15.7354 9.7627L9 3.02734L8.9668 3.06055L2.2627 9.7627C2.06015 9.9652 1.78544 10.0791 1.49902 10.0791L1.39258 10.0732C1.18046 10.0522 0.979299 9.96912 0.814453 9.83398L0.735352 9.7627C0.532838 9.56018 0.41899 9.28542 0.418945 8.99902L0.423828 8.89258C0.444776 8.68058 0.528137 8.47927 0.663086 8.31445L0.735352 8.23535L8.23535 0.735352C8.31039 0.660053 8.39592 0.59597 8.48926 0.545898L8.58594 0.5C8.71686 0.445707 8.85729 0.417969 8.99902 0.417969Z" fill="#475569" stroke="#475569" stroke-width="0.09375"/>
</svg>
