<svg width="68" height="71" viewBox="0 0 68 71" fill="none" xmlns="http://www.w3.org/2000/svg">
<path d="M66.5938 65.7532C59.5438 62.3157 55.5001 54.947 55.5001 45.5032V40.1032C55.5027 39.1014 55.2032 38.1221 54.6407 37.2931C54.0782 36.4641 53.2788 35.824 52.3469 35.4564L44.5626 32.3751C43.9501 32.1301 43.4593 31.6531 43.1971 31.0478C42.9349 30.4426 42.9225 29.7582 43.1626 29.1439L49.8251 12.5814C50.2772 11.4943 50.5054 10.3272 50.4958 9.14985C50.4862 7.97254 50.2392 6.80927 49.7694 5.72969C49.2996 4.65012 48.6168 3.67645 47.7619 2.86699C46.9069 2.05754 45.8974 1.42895 44.7938 1.01886C42.6442 0.231252 40.2723 0.312969 38.182 1.24665C36.0917 2.18032 34.448 3.89235 33.6001 6.01886C33.5988 6.03133 33.5988 6.04389 33.6001 6.05636L27.0313 22.6876C26.787 23.3029 26.3086 23.7962 25.7011 24.0592C25.0936 24.3222 24.4066 24.3336 23.7907 24.0907L15.8469 20.8564C14.9311 20.4852 13.9253 20.3958 12.9583 20.5996C11.9913 20.8033 11.1071 21.291 10.4188 22.0001C3.83756 28.7657 0.500064 36.672 0.500064 45.5001C0.482769 54.5342 3.97654 63.2216 10.2438 69.7282C10.4786 69.9737 10.761 70.1688 11.0737 70.3015C11.3864 70.4342 11.7229 70.5018 12.0626 70.5001H65.5001C66.0651 70.4996 66.6133 70.3076 67.0553 69.9556C67.4973 69.6035 67.807 69.1121 67.9338 68.5614C68.0607 68.0108 67.9973 67.4334 67.7539 66.9235C67.5106 66.4135 67.1017 66.001 66.5938 65.7532ZM13.9813 25.5001L21.9219 28.7189C22.8385 29.0856 23.8185 29.2677 24.8056 29.2548C25.7928 29.2419 26.7677 29.0343 27.6744 28.6438C28.5811 28.2533 29.4018 27.6876 30.0894 26.9792C30.777 26.2708 31.318 25.4337 31.6813 24.5157L38.2438 7.95324C39.0438 6.04386 41.2032 5.05636 43.0657 5.76574C43.5405 5.94191 43.9748 6.21245 44.3422 6.56103C44.7096 6.90961 45.0026 7.329 45.2035 7.79392C45.4045 8.25883 45.5091 8.75962 45.5112 9.26608C45.5133 9.77255 45.4128 10.2742 45.2157 10.7407L38.5282 27.3001C37.796 29.1472 37.8267 31.2094 38.6136 33.0339C39.4005 34.8584 40.8792 36.2961 42.7251 37.0314L50.5001 40.1032V45.5001C50.5001 45.6032 50.5001 45.7064 50.5001 45.8126L10.4282 29.7845C11.4935 28.2617 12.6819 26.8288 13.9813 25.5001ZM28.9813 65.5001C25.2592 61.9297 22.6223 57.3797 21.3751 52.3751C21.2012 51.7421 20.7854 51.2029 20.2174 50.8739C19.6494 50.5448 18.9748 50.4524 18.3392 50.6165C17.7037 50.7807 17.1582 51.1882 16.8205 51.7511C16.4828 52.314 16.3801 52.9871 16.5344 53.6251C17.6248 57.9305 19.5766 61.9702 22.2719 65.5001H13.1376C8.20689 60.0068 5.48598 52.8817 5.50006 45.5001C5.46949 41.5891 6.29392 37.7186 7.91569 34.1595L50.9782 51.3845C51.9157 57.0095 54.2782 61.847 57.8188 65.497L28.9813 65.5001Z" fill="#4F46E5"/>
</svg>
