<svg width="66" height="56" viewBox="0 0 66 56" fill="none" xmlns="http://www.w3.org/2000/svg">
<path d="M65.5 53C65.5 53.663 65.2366 54.2989 64.7678 54.7678C64.2989 55.2366 63.663 55.5 63 55.5H3C2.33696 55.5 1.70107 55.2366 1.23223 54.7678C0.763392 54.2989 0.5 53.663 0.5 53V3C0.5 2.33696 0.763392 1.70107 1.23223 1.23223C1.70107 0.763393 2.33696 0.5 3 0.5C3.66304 0.5 4.29893 0.763393 4.76777 1.23223C5.23661 1.70107 5.5 2.33696 5.5 3V32.4906L21.3531 18.625C21.7845 18.2474 22.3326 18.0295 22.9055 18.0079C23.4784 17.9862 24.0414 18.1622 24.5 18.5063L42.8781 32.2906L61.3531 16.125C61.5954 15.8852 61.8841 15.6975 62.2015 15.5734C62.519 15.4493 62.8584 15.3914 63.1991 15.4032C63.5397 15.4151 63.8743 15.4965 64.1824 15.6425C64.4904 15.7884 64.7653 15.9958 64.9902 16.2519C65.2152 16.508 65.3854 16.8074 65.4903 17.1317C65.5953 17.4559 65.6329 17.7983 65.6007 18.1376C65.5686 18.4769 65.4674 18.8061 65.3034 19.1049C65.1393 19.4036 64.9159 19.6657 64.6469 19.875L44.6469 37.375C44.2155 37.7526 43.6674 37.9705 43.0945 37.9921C42.5216 38.0138 41.9586 37.8378 41.5 37.4938L23.1219 23.7156L5.5 39.1344V50.5H63C63.663 50.5 64.2989 50.7634 64.7678 51.2322C65.2366 51.7011 65.5 52.337 65.5 53Z" fill="#4F46E5"/>
</svg>
