<svg width="56" height="76" viewBox="0 0 56 76" fill="none" xmlns="http://www.w3.org/2000/svg">
<path d="M55.4345 34.9282C55.3398 34.5275 55.1477 34.1564 54.8751 33.8478C54.6025 33.5393 54.2579 33.3028 53.872 33.1594L35.8689 26.4063L40.4501 3.49067C40.5538 2.95824 40.4816 2.40651 40.2443 1.91874C40.0069 1.43097 39.6174 1.03363 39.1344 0.78668C38.6514 0.539726 38.1012 0.456559 37.5668 0.549728C37.0325 0.642898 36.5429 0.907349 36.172 1.30318L1.17198 38.8032C0.887712 39.1027 0.682071 39.468 0.573426 39.8664C0.464782 40.2648 0.456518 40.6839 0.549373 41.0863C0.642229 41.4887 0.833311 41.8618 1.10555 42.1723C1.37779 42.4828 1.7227 42.721 2.10948 42.8657L20.1189 49.6188L15.5501 72.5094C15.4464 73.0419 15.5186 73.5936 15.756 74.0814C15.9933 74.5691 16.3828 74.9665 16.8658 75.2134C17.3488 75.4604 17.899 75.5435 18.4334 75.4504C18.9677 75.3572 19.4573 75.0927 19.8282 74.6969L54.8282 37.1969C55.1074 36.8973 55.3086 36.5338 55.4143 36.1382C55.52 35.7426 55.527 35.3271 55.4345 34.9282ZM22.1782 64.875L25.4501 48.5063C25.5672 47.9258 25.4744 47.3225 25.1883 46.804C24.9021 46.2855 24.4412 45.8854 23.8876 45.675L7.3751 39.4719L33.8189 11.1407L30.5501 27.5094C30.433 28.09 30.5258 28.6932 30.8119 29.2117C31.0981 29.7302 31.559 30.1303 32.1126 30.3407L48.6126 36.5282L22.1782 64.875Z" fill="#4F46E5"/>
</svg>
