<svg width="66" height="63" viewBox="0 0 66 63" fill="none" xmlns="http://www.w3.org/2000/svg">
<path d="M63 25.4999H60.3844C59.7562 18.6714 56.5995 12.3239 51.5334 7.70247C46.4673 3.08102 39.8573 0.519043 33 0.519043C26.1427 0.519043 19.5327 3.08102 14.4666 7.70247C9.4005 12.3239 6.24379 18.6714 5.61562 25.4999H3C2.33696 25.4999 1.70107 25.7633 1.23223 26.2321C0.763392 26.701 0.5 27.3369 0.5 27.9999C0.510984 33.9453 2.14716 39.7745 5.2316 44.8572C8.31603 49.9399 12.7313 54.0827 18 56.8374V57.9999C18 59.326 18.5268 60.5978 19.4645 61.5354C20.4021 62.4731 21.6739 62.9999 23 62.9999H43C44.3261 62.9999 45.5979 62.4731 46.5355 61.5354C47.4732 60.5978 48 59.326 48 57.9999V56.8374C53.2687 54.0827 57.684 49.9399 60.7684 44.8572C63.8528 39.7745 65.489 33.9453 65.5 27.9999C65.5 27.3369 65.2366 26.701 64.7678 26.2321C64.2989 25.7633 63.663 25.4999 63 25.4999ZM55.3562 25.4999H39.2875C42.3185 20.9527 46.904 17.6671 52.1844 16.2593C53.9109 19.0676 54.9941 22.2233 55.3562 25.4999ZM47.2125 10.5718C47.7854 11.0405 48.3344 11.5353 48.8594 12.0562C42.2043 14.3973 36.7047 19.2087 33.5 25.4937H24.2812C25.8438 21.1138 28.7204 17.3231 32.5182 14.6394C36.316 11.9558 40.8497 10.5101 45.5 10.4999C46.0719 10.4999 46.6437 10.528 47.2125 10.5718ZM33 5.49992C35.0062 5.50124 37.0031 5.77135 38.9375 6.30304C34.2264 7.47171 29.9065 9.8616 26.4134 13.2319C22.9202 16.6021 20.3772 20.8336 19.0406 25.4999H10.6437C11.2639 20.0026 13.8854 14.9258 18.0085 11.2372C22.1315 7.54871 27.4678 5.50649 33 5.49992ZM44.4563 52.9999C44.0202 53.2003 43.651 53.5219 43.3927 53.9264C43.1345 54.331 42.9982 54.8013 43 55.2812V57.9999H23V55.2812C23.0018 54.8013 22.8655 54.331 22.6073 53.9264C22.349 53.5219 21.9798 53.2003 21.5437 52.9999C17.1472 50.9768 13.3602 47.8328 10.5628 43.8835C7.76543 39.9343 6.05604 35.3186 5.60625 30.4999H60.3844C59.9355 35.3176 58.2275 39.9326 55.4318 43.8818C52.6361 47.831 48.851 50.9755 44.4563 52.9999Z" fill="#4F46E5"/>
</svg>
