<svg width="18" height="18" viewBox="0 0 18 18" fill="none" xmlns="http://www.w3.org/2000/svg">
<path d="M4.3125 9.79688C5.27995 9.79688 6.21011 10.1574 6.92383 10.8037L7.06348 10.9365C7.79311 11.6662 8.20312 12.6556 8.20312 13.6875C8.20312 14.361 8.02847 15.0213 7.69824 15.6045L7.54785 15.8486C7.1737 16.4086 6.66108 16.8606 6.0625 17.1621L5.80176 17.2822C5.17979 17.5399 4.50285 17.6306 3.83789 17.5488L3.55371 17.5029C2.89347 17.3716 2.27993 17.0721 1.77246 16.6348L1.56152 16.4385C1.08546 15.9624 0.742421 15.3722 0.563477 14.7266L0.49707 14.4463C0.365766 13.786 0.408279 13.1049 0.618164 12.4688L0.717773 12.1982C0.975467 11.5762 1.38987 11.0335 1.91797 10.6211L2.15137 10.4521C2.79108 10.0248 3.54319 9.79688 4.3125 9.79688ZM13.6875 9.79688C14.655 9.79688 15.5851 10.1574 16.2988 10.8037L16.4385 10.9365C17.1681 11.6662 17.5781 12.6556 17.5781 13.6875C17.5781 14.361 17.4035 15.0213 17.0732 15.6045L16.9229 15.8486C16.5487 16.4086 16.0361 16.8606 15.4375 17.1621L15.1768 17.2822C14.5548 17.5399 13.8779 17.6306 13.2129 17.5488L12.9287 17.5029C12.2685 17.3716 11.6549 17.0721 11.1475 16.6348L10.9365 16.4385C10.4605 15.9624 10.1174 15.3722 9.93848 14.7266L9.87207 14.4463C9.72199 13.6916 9.79832 12.9091 10.0928 12.1982C10.3505 11.5762 10.7649 11.0335 11.293 10.6211L11.5264 10.4521C12.1661 10.0248 12.9182 9.79688 13.6875 9.79688ZM4.97656 12.085C4.6598 11.9538 4.3109 11.9195 3.97461 11.9863C3.68008 12.0449 3.406 12.1788 3.17969 12.374L3.08594 12.4609C2.84338 12.7035 2.67825 13.0132 2.61133 13.3496C2.55287 13.6439 2.5714 13.9479 2.66504 14.2314L2.70996 14.3516C2.82486 14.6289 3.00966 14.8709 3.24512 15.0547L3.34863 15.1299C3.63385 15.3205 3.96947 15.4219 4.3125 15.4219C4.71506 15.4219 5.10346 15.2823 5.41211 15.0293L5.53906 14.9141C5.86432 14.5888 6.04688 14.1475 6.04688 13.6875C6.04687 13.3445 5.94546 13.0088 5.75488 12.7236C5.58813 12.4741 5.35952 12.273 5.09277 12.1387L4.97656 12.085ZM14.3516 12.085C14.0348 11.9538 13.6859 11.9195 13.3496 11.9863C13.0132 12.0532 12.7035 12.2184 12.4609 12.4609C12.2184 12.7035 12.0532 13.0132 11.9863 13.3496C11.9279 13.6439 11.9464 13.9479 12.04 14.2314L12.085 14.3516C12.2162 14.6684 12.4385 14.9394 12.7236 15.1299C13.0088 15.3205 13.3445 15.4219 13.6875 15.4219C14.0901 15.4219 14.4785 15.2823 14.7871 15.0293L14.9141 14.9141C15.2393 14.5888 15.4219 14.1475 15.4219 13.6875C15.4219 13.3445 15.3205 13.0088 15.1299 12.7236C14.9631 12.4741 14.7345 12.273 14.4678 12.1387L14.3516 12.085ZM12.1982 0.717773C12.8202 0.460145 13.4972 0.369435 14.1621 0.451172L14.4463 0.49707C15.1065 0.628401 15.7201 0.927878 16.2275 1.36523L16.4385 1.56152C16.9145 2.03759 17.2576 2.62777 17.4365 3.27344L17.5029 3.55371C17.6342 4.21395 17.5917 4.89505 17.3818 5.53125L17.2822 5.80176C17.0245 6.42377 16.6101 6.96652 16.082 7.37891L15.8486 7.54785C15.2089 7.97516 14.4568 8.20312 13.6875 8.20312C12.72 8.20312 11.7899 7.84263 11.0762 7.19629L10.9365 7.06348C10.2069 6.33384 9.79688 5.34436 9.79688 4.3125C9.79688 3.63932 9.9718 2.97953 10.3018 2.39648L10.4521 2.15137C10.8263 1.59141 11.3389 1.13936 11.9375 0.837891L12.1982 0.717773ZM4.3125 0.421875C5.27995 0.421875 6.21011 0.782371 6.92383 1.42871L7.06348 1.56152C7.79311 2.29116 8.20312 3.28064 8.20312 4.3125C8.20312 4.98597 8.02847 5.64627 7.69824 6.22949L7.54785 6.47363C7.1737 7.03359 6.66108 7.48564 6.0625 7.78711L5.80176 7.90723C5.17979 8.16485 4.50285 8.25557 3.83789 8.17383L3.55371 8.12793C2.799 7.97781 2.10564 7.60759 1.56152 7.06348C1.08546 6.58741 0.742421 5.99723 0.563477 5.35156L0.49707 5.07129C0.365766 4.41105 0.408279 3.72995 0.618164 3.09375L0.717773 2.82324C0.975467 2.20123 1.38987 1.65848 1.91797 1.24609L2.15137 1.07715C2.79108 0.649838 3.54319 0.421875 4.3125 0.421875ZM4.97656 2.70996C4.6598 2.57875 4.3109 2.54453 3.97461 2.61133C3.68008 2.66991 3.406 2.80384 3.17969 2.99902L3.08594 3.08594C2.84338 3.32849 2.67825 3.63817 2.61133 3.97461C2.55287 4.26895 2.5714 4.57286 2.66504 4.85645L2.70996 4.97656C2.82486 5.25385 3.00966 5.49587 3.24512 5.67969L3.34863 5.75488C3.63385 5.94546 3.96947 6.04687 4.3125 6.04688C4.71506 6.04688 5.10346 5.90725 5.41211 5.6543L5.53906 5.53906C5.86432 5.2138 6.04688 4.77248 6.04688 4.3125C6.04687 4.01238 5.96938 3.71794 5.82227 3.45801L5.75488 3.34863C5.58813 3.0991 5.35952 2.89805 5.09277 2.76367L4.97656 2.70996ZM13.6875 2.57812C13.2849 2.57813 12.8965 2.71775 12.5879 2.9707L12.4609 3.08594C12.1357 3.4112 11.9531 3.85252 11.9531 4.3125C11.9531 4.65553 12.0545 4.99115 12.2451 5.27637C12.4119 5.52591 12.6405 5.72695 12.9072 5.86133L13.0234 5.91504C13.3402 6.04625 13.6891 6.08047 14.0254 6.01367C14.3199 5.95509 14.594 5.82116 14.8203 5.62598L14.9141 5.53906C15.1264 5.32673 15.2796 5.06339 15.3594 4.77539L15.3887 4.65039C15.4555 4.3141 15.4212 3.9652 15.29 3.64844C15.1751 3.37115 14.9903 3.12913 14.7549 2.94531L14.6514 2.87012C14.3662 2.67954 14.0305 2.57812 13.6875 2.57812Z" fill="#475569" stroke="#475569" stroke-width="0.09375"/>
</svg>
