<svg width="70" height="66" viewBox="0 0 70 66" fill="none" xmlns="http://www.w3.org/2000/svg">
<path d="M35 18C32.0333 18 29.1332 18.8797 26.6664 20.5279C24.1997 22.1762 22.2771 24.5188 21.1418 27.2597C20.0065 30.0006 19.7094 33.0166 20.2882 35.9263C20.867 38.8361 22.2956 41.5088 24.3934 43.6066C26.4912 45.7044 29.1639 47.133 32.0736 47.7118C34.9833 48.2905 37.9993 47.9935 40.7402 46.8582C43.4811 45.7229 45.8238 43.8003 47.472 41.3335C49.1203 38.8668 50 35.9667 50 33C49.9958 29.023 48.4142 25.2101 45.602 22.3979C42.7899 19.5858 38.977 18.0041 35 18ZM35 43C33.0222 43 31.0888 42.4135 29.4443 41.3147C27.7998 40.2159 26.5181 38.6541 25.7612 36.8268C25.0043 34.9996 24.8063 32.9889 25.1921 31.0491C25.578 29.1093 26.5304 27.3274 27.9289 25.9289C29.3274 24.5304 31.1093 23.578 33.0491 23.1921C34.9889 22.8063 36.9996 23.0043 38.8268 23.7612C40.6541 24.5181 42.2159 25.7998 43.3147 27.4443C44.4135 29.0888 45 31.0222 45 33C45 35.6521 43.9464 38.1957 42.0711 40.071C40.1957 41.9464 37.6521 43 35 43ZM69.3562 26.5031C69.2866 26.1511 69.142 25.8181 68.9322 25.5269C68.7225 25.2358 68.4525 24.9932 68.1406 24.8156L58.8187 19.5031L58.7812 8.99685C58.7801 8.63502 58.7004 8.27775 58.5478 7.94971C58.3951 7.62167 58.173 7.33069 57.8969 7.09686C54.5154 4.23654 50.6214 2.04456 46.4219 0.637481C46.0911 0.525543 45.7407 0.484118 45.393 0.515873C45.0453 0.547629 44.7081 0.651861 44.4031 0.821856L35 6.0781L25.5875 0.812481C25.2823 0.641528 24.9447 0.536509 24.5964 0.504212C24.2482 0.471914 23.897 0.513057 23.5656 0.624981C19.3692 2.04235 15.4796 4.24268 12.1031 7.10936C11.8274 7.34285 11.6055 7.63333 11.4529 7.96079C11.3002 8.28826 11.2203 8.64493 11.2187 9.00623L11.1719 19.5219L1.84998 24.8344C1.53811 25.0119 1.26812 25.2545 1.05836 25.5457C0.848605 25.8369 0.703994 26.1698 0.63436 26.5219C-0.218777 30.809 -0.218777 35.2222 0.63436 39.5094C0.703994 39.8614 0.848605 40.1943 1.05836 40.4855C1.26812 40.7767 1.53811 41.0193 1.84998 41.1969L11.1719 46.5094L11.2094 57.0156C11.2105 57.3774 11.2902 57.7347 11.4428 58.0628C11.5955 58.3908 11.8176 58.6818 12.0937 58.9156C15.4752 61.7759 19.3692 63.9679 23.5687 65.375C23.8994 65.4869 24.2499 65.5284 24.5976 65.4966C24.9453 65.4648 25.2825 65.3606 25.5875 65.1906L35 59.9219L44.4125 65.1875C44.785 65.395 45.2048 65.5027 45.6312 65.5C45.9043 65.4999 46.1755 65.4556 46.4344 65.3687C50.6303 63.9532 54.5198 61.7551 57.8969 58.8906C58.1726 58.6571 58.3944 58.3666 58.5471 58.0392C58.6998 57.7117 58.7797 57.355 58.7812 56.9937L58.8281 46.4781L68.15 41.1656C68.4619 40.9881 68.7318 40.7454 68.9416 40.4543C69.1514 40.1631 69.296 39.8302 69.3656 39.4781C70.214 35.1944 70.2108 30.7856 69.3562 26.5031ZM64.6687 37.4125L55.7406 42.4906C55.3494 42.713 55.0255 43.0369 54.8031 43.4281C54.6219 43.7406 54.4312 44.0719 54.2375 44.3844C53.9895 44.7784 53.8574 45.2344 53.8562 45.7L53.8094 55.7781C51.4096 57.6627 48.7361 59.1696 45.8812 60.2469L36.875 55.2281C36.5011 55.0212 36.0804 54.9136 35.6531 54.9156H35.5937C35.2156 54.9156 34.8344 54.9156 34.4562 54.9156C34.009 54.9044 33.5668 55.0123 33.175 55.2281L24.1625 60.2594C21.3016 59.1904 18.6207 57.6908 16.2125 55.8125L16.1781 45.75C16.1766 45.2834 16.0445 44.8266 15.7969 44.4312C15.6031 44.1187 15.4125 43.8062 15.2344 43.475C15.0135 43.0778 14.6896 42.7474 14.2969 42.5187L5.35936 37.4281C4.89686 34.5025 4.89686 31.5224 5.35936 28.5969L14.2719 23.5094C14.663 23.2869 14.9869 22.963 15.2094 22.5719C15.3906 22.2594 15.5812 21.9281 15.775 21.6156C16.023 21.2215 16.1551 20.7656 16.1562 20.3L16.2031 10.2219C18.6029 8.33731 21.2764 6.83035 24.1312 5.75311L33.125 10.7719C33.5164 10.9888 33.9589 11.0967 34.4062 11.0844C34.7844 11.0844 35.1656 11.0844 35.5437 11.0844C35.991 11.0955 36.4331 10.9877 36.825 10.7719L45.8375 5.74061C48.6984 6.80959 51.3793 8.30916 53.7875 10.1875L53.8219 20.25C53.8234 20.7165 53.9555 21.1733 54.2031 21.5687C54.3969 21.8812 54.5875 22.1937 54.7656 22.525C54.9865 22.9222 55.3103 23.2525 55.7031 23.4812L64.6406 28.5719C65.1093 31.4997 65.1145 34.483 64.6562 37.4125H64.6687Z" fill="#4F46E5"/>
</svg>
