<svg width="66" height="66" viewBox="0 0 66 66" fill="none" xmlns="http://www.w3.org/2000/svg">
<path d="M33 0.5C26.5721 0.5 20.2886 2.40609 14.944 5.97724C9.59938 9.54838 5.43378 14.6242 2.97393 20.5628C0.514082 26.5014 -0.129527 33.0361 1.12449 39.3404C2.37851 45.6448 5.47384 51.4358 10.019 55.981C14.5643 60.5262 20.3552 63.6215 26.6596 64.8755C32.964 66.1295 39.4986 65.4859 45.4372 63.0261C51.3758 60.5662 56.4516 56.4006 60.0228 51.056C63.5939 45.7114 65.5 39.4279 65.5 33C65.4909 24.3833 62.0639 16.122 55.9709 10.0291C49.878 3.93612 41.6168 0.509099 33 0.5ZM33 60.5C27.561 60.5 22.2442 58.8872 17.7218 55.8654C13.1995 52.8437 9.67474 48.5488 7.59333 43.5238C5.51192 38.4988 4.96733 32.9695 6.02842 27.635C7.08951 22.3005 9.70863 17.4005 13.5546 13.5546C17.4005 9.70862 22.3006 7.0895 27.635 6.0284C32.9695 4.96731 38.4988 5.5119 43.5238 7.59331C48.5488 9.67472 52.8437 13.1995 55.8654 17.7218C58.8872 22.2442 60.5 27.561 60.5 33C60.4917 40.2909 57.5918 47.2808 52.4363 52.4363C47.2809 57.5918 40.2909 60.4917 33 60.5ZM18 26.75C18 26.0083 18.2199 25.2833 18.632 24.6666C19.0441 24.0499 19.6297 23.5693 20.315 23.2855C21.0002 23.0016 21.7542 22.9274 22.4816 23.0721C23.209 23.2167 23.8772 23.5739 24.4017 24.0983C24.9261 24.6228 25.2833 25.291 25.428 26.0184C25.5727 26.7458 25.4984 27.4998 25.2146 28.1851C24.9307 28.8703 24.4501 29.456 23.8334 29.868C23.2167 30.2801 22.4917 30.5 21.75 30.5C20.7555 30.5 19.8016 30.1049 19.0984 29.4017C18.3951 28.6984 18 27.7446 18 26.75ZM50.5 26.75C50.5 27.413 50.2366 28.0489 49.7678 28.5178C49.2989 28.9866 48.6631 29.25 48 29.25H40.5C39.837 29.25 39.2011 28.9866 38.7322 28.5178C38.2634 28.0489 38 27.413 38 26.75C38 26.087 38.2634 25.4511 38.7322 24.9822C39.2011 24.5134 39.837 24.25 40.5 24.25H48C48.6631 24.25 49.2989 24.5134 49.7678 24.9822C50.2366 25.4511 50.5 26.087 50.5 26.75ZM47.6625 41.75C44.4469 47.3094 39.1031 50.5 33 50.5C26.8969 50.5 21.5531 47.3125 18.3344 41.75C18.1702 41.4656 18.0637 41.1517 18.0209 40.8261C17.9781 40.5005 17.9998 40.1697 18.0848 39.8526C18.1698 39.5354 18.3165 39.2381 18.5164 38.9776C18.7163 38.7171 18.9656 38.4985 19.25 38.3344C19.5344 38.1702 19.8483 38.0637 20.1739 38.0209C20.4995 37.978 20.8303 37.9998 21.1475 38.0848C21.4646 38.1698 21.7619 38.3165 22.0224 38.5164C22.2829 38.7163 22.5015 38.9656 22.6656 39.25C24.9969 43.2844 28.6656 45.5 33 45.5C37.3344 45.5 41.0031 43.2812 43.3375 39.25C43.4938 38.9512 43.7089 38.6872 43.9699 38.4737C44.2309 38.2602 44.5324 38.1018 44.8562 38.0078C45.18 37.9139 45.5195 37.8864 45.8542 37.9271C46.1889 37.9677 46.5119 38.0757 46.8038 38.2444C47.0957 38.4131 47.3505 38.6392 47.5528 38.9089C47.7551 39.1787 47.9007 39.4865 47.9809 39.814C48.0612 40.1415 48.0743 40.4819 48.0196 40.8146C47.9649 41.1473 47.8434 41.4655 47.6625 41.75Z" fill="#4F46E5"/>
</svg>
